# xmcd
#
# Track frame offsets:
#	165
#	17886
#	36871
#	52561
#	71145
#	80536
#	92665
#	110403
#	128787
#	140492
#	155141
#	174311
#	194741
#	214709
#	234560
#
# Disc length: 3329 seconds
#
# Revision: 0
# Processed by: cddbd v1.4PL0 Copyright (c) Steve Scherf et al.
# Submitted via: audiograbber 1.80
#
DISCID=d00cff0f
DTITLE=Gina Anderson - Heart's Cry
DYEAR=1900
DGENRE=
TTITLE0=Nothing Can Separate Me
TTITLE1=I Will Sing To You Lord
TTITLE2=Jesus Is Lord
TTITLE3=Rain Down Your Glory
TTITLE4=My Heart Longs
TTITLE5=Lord, You Are To Me
TTITLE6=My First Love
TTITLE7=Heart's Cry
TTITLE8=He's Lord Of All
TTITLE9=Living Water
TTITLE10=In Your Presence
TTITLE11=Praise You Name Forever
TTITLE12=Glory To The Lord
TTITLE13=I Belong To You
TTITLE14=As We Leave This Holy Place
EXTD=
EXTT0=
EXTT1=
EXTT2=
EXTT3=
EXTT4=
EXTT5=
EXTT6=
EXTT7=
EXTT8=
EXTT9=
EXTT10=
EXTT11=
EXTT12=
EXTT13=
EXTT14=
PLAYORDER=
